<?xml version="1.0" encoding="UTF-8" standalone="no"?>
<!-- Created with Inkscape (http://www.inkscape.org/) -->

<svg
   xmlns:dc="http://purl.org/dc/elements/1.1/"
   xmlns:cc="http://creativecommons.org/ns#"
   xmlns:rdf="http://www.w3.org/1999/02/22-rdf-syntax-ns#"
   xmlns:svg="http://www.w3.org/2000/svg"
   xmlns="http://www.w3.org/2000/svg"
   xmlns:sodipodi="http://sodipodi.sourceforge.net/DTD/sodipodi-0.dtd"
   xmlns:inkscape="http://www.inkscape.org/namespaces/inkscape"
   width="106.96703mm"
   height="30.070141mm"
   viewBox="0 0 106.96703 30.070141"
   version="1.1"
   id="svg911"
   inkscape:version="0.92.2 2405546, 2018-03-11"
   sodipodi:docname="verde-logo.svg">
  <defs
     id="defs905" />
  <sodipodi:namedview
     id="base"
     pagecolor="#ffffff"
     bordercolor="#666666"
     borderopacity="1.0"
     inkscape:pageopacity="0.0"
     inkscape:pageshadow="2"
     inkscape:zoom="0.49497475"
     inkscape:cx="-303.91534"
     inkscape:cy="-154.42305"
     inkscape:document-units="mm"
     inkscape:current-layer="layer1"
     showgrid="false"
     fit-margin-top="0"
     fit-margin-left="0"
     fit-margin-right="0"
     fit-margin-bottom="0"
     inkscape:window-width="1920"
     inkscape:window-height="1080"
     inkscape:window-x="0"
     inkscape:window-y="0"
     inkscape:window-maximized="0" />
  <metadata
     id="metadata908">
    <rdf:RDF>
      <cc:Work
         rdf:about="">
        <dc:format>image/svg+xml</dc:format>
        <dc:type
           rdf:resource="http://purl.org/dc/dcmitype/StillImage" />
        <dc:title></dc:title>
      </cc:Work>
    </rdf:RDF>
  </metadata>
  <g
     inkscape:label="Layer 1"
     inkscape:groupmode="layer"
     id="layer1"
     transform="translate(-13.04029,8.3207843)">
    <g
       id="g1040"
       transform="translate(-162.11936,7.6695847)"
       style="stroke-linecap:butt;stroke-linejoin:round;stroke-miterlimit:100000">
      <path
         sodipodi:nodetypes="ccccccccccccccccccccccccc"
         inkscape:connector-curvature="0"
         id="path926"
         d="m 200.86847,-0.955309 v -15.03506 h 8.37832 8.37832 v 2.18066 2.18066 h -6.31243 -6.31243 v 4.24654 4.24655 h 6.31243 6.31243 v 2.18065 2.18066 h -6.31243 -6.31243 v 4.24655 4.24654 h 6.31243 6.31243 v 2.18066 2.18066 h -8.37832 -8.37832 z"
         style="fill:#20a684;fill-opacity:1;stroke-width:0.22954293;stroke-linecap:butt;stroke-linejoin:round;stroke-miterlimit:100000" />
      <path
         sodipodi:nodetypes="cccccccccccccccccccccccccc"
         inkscape:connector-curvature="0"
         id="path926-7"
         d="m 243.56347,-0.955319 v -15.03505 h 6.31243 6.31243 v 2.18066 2.18065 h 2.18066 2.18065 v 10.67374 10.67375 h -2.18065 -2.18066 v 2.18066 2.18067 h -6.31243 -6.31243 z m 12.62486,0 v -10.67374 h -4.24655 -4.24654 v 10.67374 10.67375 h 4.24654 4.24655 z"
         style="fill:#6ccd5a;fill-opacity:1;stroke-width:0.22954294;stroke-linecap:butt;stroke-linejoin:round;stroke-miterlimit:100000" />
      <path
         sodipodi:nodetypes="ccccccccccccccccccccccccccccccccccccccccc"
         inkscape:connector-curvature="0"
         id="path926-5"
         d="m 183.88228,11.899101 v -2.18066 h -2.18065 -2.18066 v -4.24654 -4.24655 h -2.18066 -2.18066 v -8.60786 -8.60786 h 2.18066 2.18066 v 8.60786 8.60786 h 2.18066 2.18065 v 2.06589 2.06588 h 2.06589 2.06589 v -2.06588 -2.06589 h 2.06588 2.06589 v -8.60786 -8.60786 h 2.18066 2.18066 v 8.60786 8.60786 h -2.18066 -2.18066 v 4.24655 4.24654 h -2.06589 -2.06588 v 2.18066 2.18066 h -2.06589 -2.06589 z"
         style="fill:#26818e;fill-opacity:1;stroke-width:0.22954294;stroke-linecap:butt;stroke-linejoin:round;stroke-miterlimit:100000" />
      <path
         sodipodi:nodetypes="cccccccccccccccccccccccccccccccccccccc"
         inkscape:connector-curvature="0"
         id="path926-7-3"
         d="m 221.98643,-0.955319 v -15.03505 h 8.60787 8.60785 v 6.42719 6.42721 h -2.29543 -2.29543 v 2.18065 2.18066 h 2.29543 2.29543 v 6.4272 6.42722 h -2.29543 -2.29543 v -4.36133 -4.36132 h -2.06588 -2.06589 v -2.06588 -2.06589 h -2.06589 -2.06588 v 6.4272 6.42722 h -2.18066 -2.18066 z m 12.62486,-6.4272 v -4.24654 h -4.13177 -4.13177 v 4.24654 4.24655 h 4.13177 4.13177 z"
         style="fill:#3dbc74;fill-opacity:1;stroke-width:0.22954296;stroke-linecap:butt;stroke-linejoin:round;stroke-miterlimit:100000" />
      <path
         sodipodi:nodetypes="ccccccccccccccccccccccccc"
         inkscape:connector-curvature="0"
         id="path926-7-5"
         d="m 264.91096,-0.955319 v -15.03505 h 8.60786 8.60786 v 2.18066 2.18065 h -6.42721 -6.4272 v 4.24654 4.24656 h 6.4272 6.42721 v 2.18065 2.18066 h -6.42721 -6.4272 v 4.24655 4.24654 h 6.4272 6.42721 v 2.18066 2.18067 h -8.60786 -8.60786 z"
         style="fill:#a0da39;fill-opacity:1;stroke-width:0.22954296;stroke-linecap:butt;stroke-linejoin:round;stroke-miterlimit:100000" />
    </g>
  </g>
</svg>
